<svg xmlns="http://www.w3.org/2000/svg" xmlns:xlink="http://www.w3.org/1999/xlink" width="500" zoomAndPan="magnify" viewBox="0 0 375 112.499997" height="150" preserveAspectRatio="xMidYMid meet" version="1.0"><defs><g/><clipPath id="fef2913284"><path d="M 54.703125 9.460938 L 267 9.460938 L 267 66 L 54.703125 66 Z M 54.703125 9.460938 " clip-rule="nonzero"/></clipPath><clipPath id="cdaef5e593"><path d="M 214.648438 30.167969 L 320.519531 30.167969 L 320.519531 68.4375 L 214.648438 68.4375 Z M 214.648438 30.167969 " clip-rule="nonzero"/></clipPath></defs><g clip-path="url(#fef2913284)"><path fill="#fdcf46" d="M 266.273438 24.332031 C 266.273438 24.332031 266.261719 24.351562 266.230469 24.390625 C 265.546875 25.25 257.011719 35.484375 234.617188 41.019531 C 234.585938 41.03125 234.558594 41.039062 234.53125 41.039062 C 230.453125 41.953125 226.351562 42.640625 222.25 43.226562 C 219.410156 43.621094 216.566406 43.925781 213.730469 44.179688 C 213.710938 44.179688 213.6875 44.183594 213.667969 44.183594 C 211.921875 44.335938 210.167969 44.472656 208.421875 44.589844 L 204.964844 44.789062 C 203.808594 44.855469 202.65625 44.882812 201.507812 44.929688 C 199.199219 45.035156 196.898438 45.046875 194.597656 45.089844 C 193.445312 45.117188 192.292969 45.085938 191.140625 45.078125 L 187.695312 45.046875 C 185.394531 44.980469 183.066406 44.917969 180.785156 44.808594 L 167.175781 44.082031 C 164.914062 43.972656 162.652344 43.867188 160.390625 43.78125 C 158.132812 43.683594 155.867188 43.613281 153.605469 43.542969 C 149.082031 43.40625 144.554688 43.304688 140.03125 43.265625 C 135.507812 43.214844 130.984375 43.226562 126.464844 43.308594 C 124.132812 43.355469 121.804688 43.414062 119.476562 43.492188 C 117.34375 43.5625 115.210938 43.648438 113.078125 43.757812 C 113.023438 43.761719 112.960938 43.761719 112.90625 43.765625 C 108.398438 44.003906 103.890625 44.332031 99.410156 44.785156 C 94.921875 45.234375 90.453125 45.832031 86.035156 46.617188 C 83.824219 47.011719 81.621094 47.449219 79.449219 47.96875 C 77.277344 48.476562 75.113281 49.039062 72.992188 49.703125 C 68.765625 51.03125 64.621094 52.703125 61.066406 55.136719 C 59.304688 56.351562 57.703125 57.789062 56.535156 59.492188 C 55.949219 60.339844 55.484375 61.253906 55.191406 62.222656 C 54.914062 63.1875 54.777344 64.210938 54.976562 65.203125 C 54.707031 64.21875 54.769531 63.175781 54.988281 62.179688 C 55.214844 61.179688 55.628906 60.210938 56.167969 59.304688 C 57.242188 57.484375 58.820312 55.929688 60.554688 54.589844 C 64.0625 51.898438 68.203125 49.984375 72.441406 48.417969 C 76.691406 46.863281 81.09375 45.664062 85.546875 44.6875 C 89.996094 43.707031 94.496094 42.917969 99.015625 42.273438 C 103.449219 41.640625 107.914062 41.132812 112.371094 40.714844 C 112.457031 40.707031 112.539062 40.699219 112.625 40.691406 C 114.648438 40.5 116.671875 40.332031 118.699219 40.183594 C 121.230469 40 123.765625 39.847656 126.296875 39.710938 C 126.664062 39.691406 127.023438 39.675781 127.386719 39.660156 C 130.441406 36.546875 136.484375 31.03125 139.269531 32.890625 C 139.425781 32.992188 139.578125 33.09375 139.730469 33.191406 L 136.726562 35.253906 L 140.605469 33.800781 C 142.867188 35.453125 143.4375 36.882812 135.644531 39.308594 C 137.09375 39.261719 138.542969 39.222656 139.992188 39.183594 C 144.554688 39.0625 149.125 39.023438 153.691406 39.019531 C 155.972656 39.023438 158.257812 39.023438 160.535156 39.050781 C 162.820312 39.066406 165.101562 39.097656 167.382812 39.140625 C 169.667969 39.175781 171.945312 39.242188 174.226562 39.292969 L 175.90625 39.328125 L 177.613281 39.355469 L 181.019531 39.410156 C 182.164062 39.4375 183.265625 39.417969 184.394531 39.417969 L 187.75 39.429688 C 189.988281 39.390625 192.238281 39.378906 194.480469 39.316406 C 196.722656 39.25 198.964844 39.210938 201.199219 39.082031 C 202.316406 39.023438 203.441406 38.988281 204.554688 38.910156 L 207.894531 38.683594 C 212.34375 38.324219 216.773438 37.867188 221.144531 37.203125 C 225.523438 36.550781 229.832031 35.660156 234.023438 34.542969 C 235.066406 34.257812 236.09375 33.933594 237.128906 33.636719 L 238.652344 33.128906 C 239.160156 32.960938 239.671875 32.796875 240.164062 32.609375 C 242.175781 31.90625 244.113281 31.097656 245.953125 30.175781 C 246.40625 29.9375 246.863281 29.703125 247.308594 29.460938 L 248.609375 28.699219 L 248.332031 28.636719 L 239.6875 26.609375 L 231.050781 24.542969 L 222.414062 22.488281 C 219.53125 21.820312 216.640625 21.1875 213.738281 20.578125 C 212.292969 20.273438 210.839844 19.988281 209.390625 19.695312 C 207.933594 19.421875 206.480469 19.128906 205.027344 18.871094 C 203.570312 18.605469 202.113281 18.347656 200.65625 18.101562 C 199.199219 17.84375 197.742188 17.613281 196.277344 17.386719 C 194.820312 17.152344 193.359375 16.960938 191.894531 16.742188 C 190.433594 16.566406 188.96875 16.355469 187.503906 16.203125 L 185.300781 15.960938 C 184.570312 15.882812 183.839844 15.824219 183.109375 15.757812 C 181.636719 15.613281 180.179688 15.535156 178.710938 15.425781 C 177.980469 15.375 177.25 15.355469 176.519531 15.316406 C 175.785156 15.28125 175.050781 15.246094 174.324219 15.238281 L 173.234375 15.222656 L 172.6875 15.214844 L 172.277344 15.203125 L 172.171875 15.203125 L 172.234375 15.195312 C 171.871094 15.207031 171.433594 15.21875 171.226562 15.246094 L 170.824219 15.277344 L 170.335938 15.335938 C 169.019531 15.511719 167.625 15.804688 166.238281 16.144531 C 164.851562 16.480469 163.460938 16.871094 162.070312 17.296875 C 159.289062 18.128906 156.527344 19.101562 153.796875 20.148438 C 151.070312 21.195312 148.382812 22.335938 145.722656 23.546875 C 143.066406 24.757812 140.449219 26.042969 137.886719 27.417969 C 135.324219 28.792969 132.800781 30.238281 130.359375 31.789062 C 127.914062 33.34375 125.527344 34.980469 123.257812 36.757812 C 125.261719 34.746094 127.402344 32.828125 129.652344 31.015625 C 131.902344 29.199219 134.242188 27.464844 136.667969 25.828125 C 139.089844 24.179688 141.578125 22.617188 144.136719 21.125 C 146.6875 19.628906 149.304688 18.226562 151.984375 16.894531 C 154.667969 15.566406 157.394531 14.308594 160.222656 13.167969 C 161.636719 12.597656 163.074219 12.0625 164.550781 11.566406 C 166.03125 11.070312 167.539062 10.613281 169.179688 10.25 L 169.800781 10.117188 C 170.023438 10.074219 170.277344 10.035156 170.515625 9.996094 C 171.046875 9.910156 171.359375 9.882812 171.75 9.839844 L 174.183594 9.671875 C 174.964844 9.613281 175.742188 9.585938 176.519531 9.558594 C 177.292969 9.53125 178.074219 9.492188 178.847656 9.480469 C 180.394531 9.457031 181.949219 9.460938 183.492188 9.460938 C 206.480469 9.460938 266.273438 24.332031 266.273438 24.332031 " fill-opacity="1" fill-rule="nonzero"/></g><path fill="#e05143" d="M 248.855469 47.324219 C 248.855469 47.324219 248.734375 47.433594 248.484375 47.636719 C 248.238281 47.84375 247.863281 48.136719 247.355469 48.496094 C 246.339844 49.226562 244.789062 50.242188 242.691406 51.363281 C 240.589844 52.488281 237.941406 53.722656 234.777344 54.890625 C 234.378906 55.035156 233.976562 55.183594 233.566406 55.335938 C 233.15625 55.476562 232.738281 55.617188 232.3125 55.761719 C 231.460938 56.054688 230.574219 56.316406 229.660156 56.59375 C 228.75 56.878906 227.804688 57.121094 226.835938 57.382812 C 225.863281 57.636719 224.863281 57.863281 223.839844 58.113281 C 219.742188 59.039062 215.21875 59.753906 210.398438 60.214844 C 209.195312 60.320312 207.96875 60.4375 206.730469 60.5 C 205.492188 60.5625 204.230469 60.660156 202.960938 60.683594 C 201.695312 60.71875 200.40625 60.761719 199.113281 60.746094 C 197.8125 60.738281 196.503906 60.765625 195.183594 60.714844 C 192.546875 60.648438 189.875 60.488281 187.167969 60.296875 C 185.820312 60.183594 184.464844 60.054688 183.097656 59.917969 C 181.730469 59.753906 180.351562 59.59375 178.964844 59.425781 C 177.605469 59.253906 176.289062 59.039062 174.941406 58.835938 C 173.589844 58.628906 172.242188 58.417969 170.890625 58.203125 C 168.21875 57.796875 165.535156 57.402344 162.859375 57.019531 C 160.171875 56.648438 157.484375 56.300781 154.804688 55.984375 C 152.128906 55.652344 149.457031 55.375 146.804688 55.109375 C 144.148438 54.878906 141.519531 54.617188 138.914062 54.445312 C 136.3125 54.273438 133.734375 54.117188 131.203125 54.011719 C 128.1875 53.886719 125.230469 53.820312 122.351562 53.820312 C 120.398438 53.820312 118.488281 53.851562 116.617188 53.914062 C 116.359375 53.921875 116.101562 53.929688 115.847656 53.941406 C 113.800781 54.019531 111.808594 54.136719 109.882812 54.296875 C 107.714844 54.460938 105.625 54.683594 103.632812 54.957031 C 99.644531 55.488281 96.027344 56.226562 92.902344 57.101562 C 89.777344 57.972656 87.132812 58.976562 85.0625 59.984375 C 82.984375 60.984375 81.472656 61.976562 80.519531 62.734375 C 80.042969 63.109375 79.695312 63.421875 79.472656 63.640625 C 79.25 63.859375 79.152344 63.984375 79.152344 63.984375 C 79.152344 63.984375 79.445312 63.421875 80.257812 62.507812 C 81.078125 61.609375 82.410156 60.359375 84.367188 59.035156 C 86.324219 57.707031 88.890625 56.324219 92.011719 55.046875 C 95.125 53.769531 98.785156 52.617188 102.863281 51.671875 C 104.90625 51.207031 107.050781 50.785156 109.28125 50.417969 C 111.007812 50.136719 112.785156 49.890625 114.605469 49.671875 C 115.144531 49.609375 115.679688 49.546875 116.222656 49.488281 C 117.769531 49.332031 119.34375 49.191406 120.949219 49.078125 C 124.300781 48.835938 127.765625 48.691406 131.304688 48.664062 C 132.613281 48.644531 133.933594 48.648438 135.261719 48.652344 C 136.589844 48.671875 137.925781 48.695312 139.269531 48.734375 C 140.613281 48.773438 141.96875 48.824219 143.320312 48.882812 C 144.683594 48.933594 146.042969 49.023438 147.410156 49.105469 C 150.140625 49.292969 152.890625 49.496094 155.644531 49.757812 C 158.398438 50.007812 161.15625 50.332031 163.910156 50.65625 C 165.28125 50.832031 166.652344 51.003906 168.027344 51.179688 C 169.394531 51.375 170.765625 51.558594 172.125 51.769531 C 172.804688 51.871094 173.488281 51.976562 174.167969 52.078125 L 175.183594 52.234375 L 176.144531 52.367188 C 177.484375 52.5625 178.820312 52.753906 180.152344 52.945312 C 181.445312 53.109375 182.738281 53.273438 184.019531 53.4375 C 185.320312 53.574219 186.609375 53.707031 187.894531 53.847656 C 190.464844 54.101562 193.011719 54.304688 195.515625 54.449219 C 198.023438 54.613281 200.492188 54.703125 202.90625 54.746094 C 205.320312 54.808594 207.683594 54.789062 209.984375 54.734375 C 214.582031 54.632812 218.929688 54.324219 222.917969 53.863281 C 223.910156 53.730469 224.894531 53.625 225.84375 53.484375 C 226.789062 53.332031 227.726562 53.226562 228.628906 53.0625 C 229.53125 52.910156 230.414062 52.765625 231.261719 52.589844 C 231.691406 52.511719 232.109375 52.433594 232.523438 52.355469 C 232.9375 52.265625 233.34375 52.179688 233.742188 52.097656 C 236.9375 51.410156 239.699219 50.671875 241.9375 49.957031 C 244.179688 49.25 245.921875 48.605469 247.085938 48.117188 C 247.664062 47.871094 248.113281 47.675781 248.410156 47.539062 C 248.707031 47.402344 248.855469 47.324219 248.855469 47.324219 " fill-opacity="1" fill-rule="nonzero"/><g clip-path="url(#cdaef5e593)"><path fill="#fdcf46" d="M 277.925781 34.195312 C 272.324219 36.238281 266.910156 39.089844 261.710938 42.691406 C 246.207031 53.429688 236.363281 65.203125 214.839844 68.25 C 238.09375 70.035156 251.109375 58.875 265.972656 47.847656 C 282.3125 35.71875 301.097656 31.21875 320.519531 34.039062 C 303.902344 28.492188 290.824219 29.496094 277.925781 34.195312 " fill-opacity="1" fill-rule="nonzero"/></g><g fill="#778a3e" fill-opacity="1"><g transform="translate(75.336301, 87.866577)"><g><path d="M 0.210938 0 L 22.074219 0 L 23.394531 -8.507812 L 12.164062 -8.507812 L 12.71875 -11.910156 L 21.820312 -11.910156 L 22.96875 -19.140625 L 13.867188 -19.140625 L 14.335938 -22.117188 L 25.136719 -22.117188 L 26.5 -30.625 L 5.0625 -30.625 Z M 0.210938 0 "/></g></g></g><g fill="#778a3e" fill-opacity="1"><g transform="translate(99.9645, 87.866577)"><g><path d="M 0.210938 0 L 9.996094 0 L 12.761719 -17.949219 L 12.847656 -17.949219 L 16.546875 0 L 24.628906 0 L 33.945312 -17.949219 L 34.027344 -17.90625 L 31.179688 0 L 40.960938 0 L 45.8125 -30.625 L 31.945312 -30.625 L 22.585938 -12.421875 L 22.5 -12.421875 L 19.097656 -30.625 L 5.0625 -30.625 Z M 0.210938 0 "/></g></g></g><g fill="#778a3e" fill-opacity="1"><g transform="translate(144.627041, 87.866577)"><g><path d="M 0.210938 0 L 11.273438 0 L 12.761719 -9.359375 L 21.011719 -9.359375 L 22.289062 -17.441406 L 14.035156 -17.441406 L 14.632812 -21.269531 L 25.4375 -21.269531 L 26.925781 -30.625 L 5.0625 -30.625 Z M 0.210938 0 "/></g></g></g><g fill="#778a3e" fill-opacity="1"><g transform="translate(169.085096, 87.866577)"><g><path d="M 16.503906 1.019531 C 25.222656 1.019531 32.199219 -4.550781 34.285156 -13.015625 L 24.203125 -14.078125 C 23.097656 -10.632812 20.417969 -8.378906 17.355469 -8.378906 C 14.335938 -8.378906 12.632812 -10.378906 12.632812 -13.738281 C 12.632812 -17.824219 14.675781 -22.289062 18.589844 -22.289062 C 21.097656 -22.289062 22.671875 -20.332031 22.757812 -17.269531 L 33.09375 -19.480469 C 33.433594 -26.839844 28.285156 -31.648438 19.394531 -31.648438 C 8.847656 -31.648438 1.488281 -23.222656 1.488281 -12.675781 C 1.488281 -4.082031 7.230469 1.019531 16.503906 1.019531 Z M 16.503906 1.019531 "/></g></g></g><g fill="#778a3e" fill-opacity="1"><g transform="translate(203.581597, 87.866577)"><g><path d="M -1.742188 0 L 9.101562 0 L 11.230469 -4.765625 L 19.695312 -4.765625 L 20.078125 0 L 31.519531 0 L 26.542969 -30.625 L 12.929688 -30.625 Z M 13.824219 -11.910156 L 18.375 -22.417969 L 18.460938 -22.417969 L 19.355469 -11.910156 Z M 13.824219 -11.910156 "/></g></g></g><g fill="#778a3e" fill-opacity="1"><g transform="translate(236.844553, 87.866577)"><g><path d="M 23.097656 0.679688 C 25.820312 0.679688 28.710938 -0.128906 30.667969 -1.402344 L 30.117188 -6.210938 C 29.648438 -5.996094 29.050781 -5.785156 28.5 -5.785156 C 27.734375 -5.785156 27.351562 -6.378906 27.222656 -7.1875 L 27.050781 -8.933594 C 26.882812 -10.589844 26.414062 -11.65625 25.265625 -12.121094 L 25.265625 -12.164062 C 29.734375 -13.953125 32.15625 -17.523438 32.15625 -21.863281 C 32.15625 -27.519531 27.945312 -30.625 20.289062 -30.625 L 5.0625 -30.625 L 0.210938 0 L 11.273438 0 L 12.886719 -10.207031 L 14.378906 -10.207031 C 15.695312 -10.207031 16.164062 -9.144531 16.332031 -7.910156 L 16.632812 -5.105469 C 17.015625 -1.53125 19.4375 0.679688 23.097656 0.679688 Z M 13.953125 -17.015625 L 14.886719 -22.96875 L 18.164062 -22.96875 C 19.992188 -22.96875 21.011719 -22.074219 21.011719 -20.503906 C 21.011719 -18.246094 19.652344 -17.015625 17.226562 -17.015625 Z M 13.953125 -17.015625 "/></g></g></g><g fill="#778a3e" fill-opacity="1"><g transform="translate(269.384408, 87.866577)"><g><path d="M 14.335938 1.019531 C 23.523438 1.019531 29.691406 -3.402344 29.691406 -10.292969 C 29.691406 -15.355469 26.753906 -18.164062 19.90625 -19.480469 L 17.226562 -20.035156 C 15.015625 -20.460938 13.695312 -21.140625 13.695312 -22.203125 C 13.695312 -23.222656 14.761719 -23.988281 16.25 -23.988281 C 18.589844 -23.988281 19.863281 -22.671875 19.777344 -20.671875 L 29.734375 -22.671875 C 29.691406 -28.199219 24.457031 -31.648438 16.589844 -31.648438 C 8.292969 -31.648438 2.890625 -27.265625 2.890625 -20.203125 C 2.890625 -15.355469 5.828125 -12.71875 12.71875 -11.441406 L 15.355469 -10.933594 C 17.566406 -10.507812 18.886719 -9.785156 18.886719 -8.632812 C 18.886719 -7.402344 17.480469 -6.679688 15.269531 -6.679688 C 12.292969 -6.679688 10.761719 -8.167969 10.675781 -10.632812 L 0.554688 -8.976562 C 0.765625 -2.808594 6.167969 1.019531 14.335938 1.019531 Z M 14.335938 1.019531 "/></g></g></g></svg>