<svg xmlns="http://www.w3.org/2000/svg" xmlns:xlink="http://www.w3.org/1999/xlink" width="500" zoomAndPan="magnify" viewBox="0 0 375 112.499997" height="150" preserveAspectRatio="xMidYMid meet" version="1.0"><defs><g/><clipPath id="f5a9af3bd6"><path d="M 54.703125 9.460938 L 267 9.460938 L 267 66 L 54.703125 66 Z M 54.703125 9.460938 " clip-rule="nonzero"/></clipPath><clipPath id="882b010ac3"><path d="M 214.648438 30.167969 L 320.519531 30.167969 L 320.519531 68.4375 L 214.648438 68.4375 Z M 214.648438 30.167969 " clip-rule="nonzero"/></clipPath></defs><g clip-path="url(#f5a9af3bd6)"><path fill="#fdcf46" d="M 266.273438 24.332031 C 266.273438 24.332031 266.261719 24.351562 266.230469 24.390625 C 265.546875 25.25 257.011719 35.484375 234.617188 41.019531 C 234.585938 41.03125 234.558594 41.039062 234.53125 41.039062 C 230.453125 41.953125 226.351562 42.640625 222.25 43.226562 C 219.410156 43.621094 216.566406 43.925781 213.730469 44.179688 C 213.710938 44.179688 213.6875 44.183594 213.667969 44.183594 C 211.921875 44.335938 210.167969 44.472656 208.421875 44.589844 L 204.964844 44.789062 C 203.808594 44.855469 202.65625 44.882812 201.507812 44.929688 C 199.199219 45.035156 196.898438 45.046875 194.597656 45.089844 C 193.445312 45.117188 192.292969 45.085938 191.140625 45.078125 L 187.695312 45.046875 C 185.394531 44.980469 183.066406 44.917969 180.785156 44.808594 L 167.175781 44.082031 C 164.914062 43.972656 162.652344 43.867188 160.390625 43.78125 C 158.132812 43.683594 155.867188 43.613281 153.605469 43.542969 C 149.082031 43.40625 144.554688 43.304688 140.03125 43.265625 C 135.507812 43.214844 130.984375 43.226562 126.464844 43.308594 C 124.132812 43.355469 121.804688 43.414062 119.476562 43.492188 C 117.34375 43.5625 115.210938 43.648438 113.078125 43.757812 C 113.023438 43.761719 112.960938 43.761719 112.90625 43.765625 C 108.398438 44.003906 103.890625 44.332031 99.410156 44.785156 C 94.921875 45.234375 90.453125 45.832031 86.035156 46.617188 C 83.824219 47.011719 81.621094 47.449219 79.449219 47.96875 C 77.277344 48.476562 75.113281 49.039062 72.992188 49.703125 C 68.765625 51.03125 64.621094 52.703125 61.066406 55.136719 C 59.304688 56.351562 57.703125 57.789062 56.535156 59.492188 C 55.949219 60.339844 55.484375 61.253906 55.191406 62.222656 C 54.914062 63.1875 54.777344 64.210938 54.976562 65.203125 C 54.707031 64.21875 54.769531 63.175781 54.988281 62.179688 C 55.214844 61.179688 55.628906 60.210938 56.167969 59.304688 C 57.242188 57.484375 58.820312 55.929688 60.554688 54.589844 C 64.0625 51.898438 68.203125 49.984375 72.441406 48.417969 C 76.691406 46.863281 81.09375 45.664062 85.546875 44.6875 C 89.996094 43.707031 94.496094 42.917969 99.015625 42.273438 C 103.449219 41.640625 107.914062 41.132812 112.371094 40.714844 C 112.457031 40.707031 112.539062 40.699219 112.625 40.691406 C 114.648438 40.5 116.671875 40.332031 118.699219 40.183594 C 121.230469 40 123.765625 39.847656 126.296875 39.710938 C 126.664062 39.691406 127.023438 39.675781 127.386719 39.660156 C 130.441406 36.546875 136.484375 31.03125 139.269531 32.890625 C 139.425781 32.992188 139.578125 33.09375 139.730469 33.191406 L 136.726562 35.253906 L 140.605469 33.800781 C 142.867188 35.453125 143.4375 36.882812 135.644531 39.308594 C 137.09375 39.261719 138.542969 39.222656 139.992188 39.183594 C 144.554688 39.0625 149.125 39.023438 153.691406 39.019531 C 155.972656 39.023438 158.257812 39.023438 160.535156 39.050781 C 162.820312 39.066406 165.101562 39.097656 167.382812 39.140625 C 169.667969 39.175781 171.945312 39.242188 174.226562 39.292969 L 175.90625 39.328125 L 177.613281 39.355469 L 181.019531 39.410156 C 182.164062 39.4375 183.265625 39.417969 184.394531 39.417969 L 187.75 39.429688 C 189.988281 39.390625 192.238281 39.378906 194.480469 39.316406 C 196.722656 39.25 198.964844 39.210938 201.199219 39.082031 C 202.316406 39.023438 203.441406 38.988281 204.554688 38.910156 L 207.894531 38.683594 C 212.34375 38.324219 216.773438 37.867188 221.144531 37.203125 C 225.523438 36.550781 229.832031 35.660156 234.023438 34.542969 C 235.066406 34.257812 236.09375 33.933594 237.128906 33.636719 L 238.652344 33.128906 C 239.160156 32.960938 239.671875 32.796875 240.164062 32.609375 C 242.175781 31.90625 244.113281 31.097656 245.953125 30.175781 C 246.40625 29.9375 246.863281 29.703125 247.308594 29.460938 L 248.609375 28.699219 L 248.332031 28.636719 L 239.6875 26.609375 L 231.050781 24.542969 L 222.414062 22.488281 C 219.53125 21.820312 216.640625 21.1875 213.738281 20.578125 C 212.292969 20.273438 210.839844 19.988281 209.390625 19.695312 C 207.933594 19.421875 206.480469 19.128906 205.027344 18.871094 C 203.570312 18.605469 202.113281 18.347656 200.65625 18.101562 C 199.199219 17.84375 197.742188 17.613281 196.277344 17.386719 C 194.820312 17.152344 193.359375 16.960938 191.894531 16.742188 C 190.433594 16.566406 188.96875 16.355469 187.503906 16.203125 L 185.300781 15.960938 C 184.570312 15.882812 183.839844 15.824219 183.109375 15.757812 C 181.636719 15.613281 180.179688 15.535156 178.710938 15.425781 C 177.980469 15.375 177.25 15.355469 176.519531 15.316406 C 175.785156 15.28125 175.050781 15.246094 174.324219 15.238281 L 173.234375 15.222656 L 172.6875 15.214844 L 172.277344 15.203125 L 172.171875 15.203125 L 172.234375 15.195312 C 171.871094 15.207031 171.433594 15.21875 171.226562 15.246094 L 170.824219 15.277344 L 170.335938 15.335938 C 169.019531 15.511719 167.625 15.804688 166.238281 16.144531 C 164.851562 16.480469 163.460938 16.871094 162.070312 17.296875 C 159.289062 18.128906 156.527344 19.101562 153.796875 20.148438 C 151.070312 21.195312 148.382812 22.335938 145.722656 23.546875 C 143.066406 24.757812 140.449219 26.042969 137.886719 27.417969 C 135.324219 28.792969 132.800781 30.238281 130.359375 31.789062 C 127.914062 33.34375 125.527344 34.980469 123.257812 36.757812 C 125.261719 34.746094 127.402344 32.828125 129.652344 31.015625 C 131.902344 29.199219 134.242188 27.464844 136.667969 25.828125 C 139.089844 24.179688 141.578125 22.617188 144.136719 21.125 C 146.6875 19.628906 149.304688 18.226562 151.984375 16.894531 C 154.667969 15.566406 157.394531 14.308594 160.222656 13.167969 C 161.636719 12.597656 163.074219 12.0625 164.550781 11.566406 C 166.03125 11.070312 167.539062 10.613281 169.179688 10.25 L 169.800781 10.117188 C 170.023438 10.074219 170.277344 10.035156 170.515625 9.996094 C 171.046875 9.910156 171.359375 9.882812 171.75 9.839844 L 174.183594 9.671875 C 174.964844 9.613281 175.742188 9.585938 176.519531 9.558594 C 177.292969 9.53125 178.074219 9.492188 178.847656 9.480469 C 180.394531 9.457031 181.949219 9.460938 183.492188 9.460938 C 206.480469 9.460938 266.273438 24.332031 266.273438 24.332031 " fill-opacity="1" fill-rule="nonzero"/></g><path fill="#e05143" d="M 248.855469 47.324219 C 248.855469 47.324219 248.734375 47.433594 248.484375 47.636719 C 248.238281 47.84375 247.863281 48.136719 247.355469 48.496094 C 246.339844 49.226562 244.789062 50.242188 242.691406 51.363281 C 240.589844 52.488281 237.941406 53.722656 234.777344 54.890625 C 234.378906 55.035156 233.976562 55.183594 233.566406 55.335938 C 233.15625 55.476562 232.738281 55.617188 232.3125 55.761719 C 231.460938 56.054688 230.574219 56.316406 229.660156 56.59375 C 228.75 56.878906 227.804688 57.121094 226.835938 57.382812 C 225.863281 57.636719 224.863281 57.863281 223.839844 58.113281 C 219.742188 59.039062 215.21875 59.753906 210.398438 60.214844 C 209.195312 60.320312 207.96875 60.4375 206.730469 60.5 C 205.492188 60.5625 204.230469 60.660156 202.960938 60.683594 C 201.695312 60.71875 200.40625 60.761719 199.113281 60.746094 C 197.8125 60.738281 196.503906 60.765625 195.183594 60.714844 C 192.546875 60.648438 189.875 60.488281 187.167969 60.296875 C 185.820312 60.183594 184.464844 60.054688 183.097656 59.917969 C 181.730469 59.753906 180.351562 59.59375 178.964844 59.425781 C 177.605469 59.253906 176.289062 59.039062 174.941406 58.835938 C 173.589844 58.628906 172.242188 58.417969 170.890625 58.203125 C 168.21875 57.796875 165.535156 57.402344 162.859375 57.019531 C 160.171875 56.648438 157.484375 56.300781 154.804688 55.984375 C 152.128906 55.652344 149.457031 55.375 146.804688 55.109375 C 144.148438 54.878906 141.519531 54.617188 138.914062 54.445312 C 136.3125 54.273438 133.734375 54.117188 131.203125 54.011719 C 128.1875 53.886719 125.230469 53.820312 122.351562 53.820312 C 120.398438 53.820312 118.488281 53.851562 116.617188 53.914062 C 116.359375 53.921875 116.101562 53.929688 115.847656 53.941406 C 113.800781 54.019531 111.808594 54.136719 109.882812 54.296875 C 107.714844 54.460938 105.625 54.683594 103.632812 54.957031 C 99.644531 55.488281 96.027344 56.226562 92.902344 57.101562 C 89.777344 57.972656 87.132812 58.976562 85.0625 59.984375 C 82.984375 60.984375 81.472656 61.976562 80.519531 62.734375 C 80.042969 63.109375 79.695312 63.421875 79.472656 63.640625 C 79.25 63.859375 79.152344 63.984375 79.152344 63.984375 C 79.152344 63.984375 79.445312 63.421875 80.257812 62.507812 C 81.078125 61.609375 82.410156 60.359375 84.367188 59.035156 C 86.324219 57.707031 88.890625 56.324219 92.011719 55.046875 C 95.125 53.769531 98.785156 52.617188 102.863281 51.671875 C 104.90625 51.207031 107.050781 50.785156 109.28125 50.417969 C 111.007812 50.136719 112.785156 49.890625 114.605469 49.671875 C 115.144531 49.609375 115.679688 49.546875 116.222656 49.488281 C 117.769531 49.332031 119.34375 49.191406 120.949219 49.078125 C 124.300781 48.835938 127.765625 48.691406 131.304688 48.664062 C 132.613281 48.644531 133.933594 48.648438 135.261719 48.652344 C 136.589844 48.671875 137.925781 48.695312 139.269531 48.734375 C 140.613281 48.773438 141.96875 48.824219 143.320312 48.882812 C 144.683594 48.933594 146.042969 49.023438 147.410156 49.105469 C 150.140625 49.292969 152.890625 49.496094 155.644531 49.757812 C 158.398438 50.007812 161.15625 50.332031 163.910156 50.65625 C 165.28125 50.832031 166.652344 51.003906 168.027344 51.179688 C 169.394531 51.375 170.765625 51.558594 172.125 51.769531 C 172.804688 51.871094 173.488281 51.976562 174.167969 52.078125 L 175.183594 52.234375 L 176.144531 52.367188 C 177.484375 52.5625 178.820312 52.753906 180.152344 52.945312 C 181.445312 53.109375 182.738281 53.273438 184.019531 53.4375 C 185.320312 53.574219 186.609375 53.707031 187.894531 53.847656 C 190.464844 54.101562 193.011719 54.304688 195.515625 54.449219 C 198.023438 54.613281 200.492188 54.703125 202.90625 54.746094 C 205.320312 54.808594 207.683594 54.789062 209.984375 54.734375 C 214.582031 54.632812 218.929688 54.324219 222.917969 53.863281 C 223.910156 53.730469 224.894531 53.625 225.84375 53.484375 C 226.789062 53.332031 227.726562 53.226562 228.628906 53.0625 C 229.53125 52.910156 230.414062 52.765625 231.261719 52.589844 C 231.691406 52.511719 232.109375 52.433594 232.523438 52.355469 C 232.9375 52.265625 233.34375 52.179688 233.742188 52.097656 C 236.9375 51.410156 239.699219 50.671875 241.9375 49.957031 C 244.179688 49.25 245.921875 48.605469 247.085938 48.117188 C 247.664062 47.871094 248.113281 47.675781 248.410156 47.539062 C 248.707031 47.402344 248.855469 47.324219 248.855469 47.324219 " fill-opacity="1" fill-rule="nonzero"/><g clip-path="url(#882b010ac3)"><path fill="#fdcf46" d="M 277.925781 34.195312 C 272.324219 36.238281 266.910156 39.089844 261.710938 42.691406 C 246.207031 53.429688 236.363281 65.203125 214.839844 68.25 C 238.09375 70.035156 251.109375 58.875 265.972656 47.847656 C 282.3125 35.71875 301.097656 31.21875 320.519531 34.039062 C 303.902344 28.492188 290.824219 29.496094 277.925781 34.195312 " fill-opacity="1" fill-rule="nonzero"/></g><g fill="#778a3e" fill-opacity="1"><g transform="translate(70.842696, 102.271761)"><g><path d="M 17.375 0.578125 C 12.851562 0.578125 9.171875 -0.8125 6.328125 -3.59375 C 3.484375 -6.375 2.0625 -10.078125 2.0625 -14.703125 L 2.0625 -15.5 C 2.0625 -18.601562 2.660156 -21.375 3.859375 -23.8125 C 5.054688 -26.257812 6.753906 -28.144531 8.953125 -29.46875 C 11.148438 -30.789062 13.65625 -31.453125 16.46875 -31.453125 C 20.695312 -31.453125 24.019531 -30.117188 26.4375 -27.453125 C 28.863281 -24.796875 30.078125 -21.019531 30.078125 -16.125 L 30.078125 -12.765625 L 10.421875 -12.765625 C 10.679688 -10.742188 11.484375 -9.125 12.828125 -7.90625 C 14.171875 -6.6875 15.867188 -6.078125 17.921875 -6.078125 C 21.097656 -6.078125 23.582031 -7.226562 25.375 -9.53125 L 29.421875 -5 C 28.191406 -3.25 26.519531 -1.878906 24.40625 -0.890625 C 22.289062 0.0859375 19.945312 0.578125 17.375 0.578125 Z M 16.4375 -24.78125 C 14.800781 -24.78125 13.472656 -24.226562 12.453125 -23.125 C 11.441406 -22.019531 10.789062 -20.4375 10.5 -18.375 L 21.984375 -18.375 L 21.984375 -19.03125 C 21.941406 -20.863281 21.441406 -22.28125 20.484375 -23.28125 C 19.535156 -24.28125 18.1875 -24.78125 16.4375 -24.78125 Z M 16.4375 -24.78125 "/></g></g></g><g fill="#778a3e" fill-opacity="1"><g transform="translate(102.437141, 102.271761)"><g><path d="M 10.90625 -30.875 L 11.15625 -27.421875 C 13.34375 -30.109375 16.300781 -31.453125 20.03125 -31.453125 C 24.007812 -31.453125 26.742188 -29.882812 28.234375 -26.75 C 30.398438 -29.882812 33.488281 -31.453125 37.5 -31.453125 C 40.851562 -31.453125 43.347656 -30.476562 44.984375 -28.53125 C 46.617188 -26.582031 47.4375 -23.644531 47.4375 -19.71875 L 47.4375 0 L 39.15625 0 L 39.15625 -19.6875 C 39.15625 -21.4375 38.8125 -22.71875 38.125 -23.53125 C 37.445312 -24.34375 36.238281 -24.75 34.5 -24.75 C 32.03125 -24.75 30.320312 -23.566406 29.375 -21.203125 L 29.390625 0 L 21.15625 0 L 21.15625 -19.671875 C 21.15625 -21.453125 20.800781 -22.742188 20.09375 -23.546875 C 19.382812 -24.347656 18.1875 -24.75 16.5 -24.75 C 14.15625 -24.75 12.460938 -23.773438 11.421875 -21.828125 L 11.421875 0 L 3.171875 0 L 3.171875 -30.875 Z M 10.90625 -30.875 "/></g></g></g><g fill="#778a3e" fill-opacity="1"><g transform="translate(153.039627, 102.271761)"><g><path d="M 5.421875 0 L 5.421875 -24.828125 L 0.828125 -24.828125 L 0.828125 -30.875 L 5.421875 -30.875 L 5.421875 -33.5 C 5.421875 -36.96875 6.414062 -39.65625 8.40625 -41.5625 C 10.394531 -43.476562 13.175781 -44.4375 16.75 -44.4375 C 17.894531 -44.4375 19.296875 -44.25 20.953125 -43.875 L 20.859375 -37.46875 C 20.179688 -37.644531 19.347656 -37.734375 18.359375 -37.734375 C 15.253906 -37.734375 13.703125 -36.273438 13.703125 -33.359375 L 13.703125 -30.875 L 19.84375 -30.875 L 19.84375 -24.828125 L 13.703125 -24.828125 L 13.703125 0 Z M 5.421875 0 "/></g></g></g><g fill="#778a3e" fill-opacity="1"><g transform="translate(173.988428, 102.271761)"><g><path d="M 16.015625 -6.078125 C 17.535156 -6.078125 18.769531 -6.492188 19.71875 -7.328125 C 20.675781 -8.171875 21.171875 -9.285156 21.203125 -10.671875 L 28.9375 -10.671875 C 28.914062 -8.578125 28.34375 -6.660156 27.21875 -4.921875 C 26.101562 -3.179688 24.566406 -1.828125 22.609375 -0.859375 C 20.660156 0.0976562 18.507812 0.578125 16.15625 0.578125 C 11.738281 0.578125 8.253906 -0.820312 5.703125 -3.625 C 3.160156 -6.4375 1.890625 -10.316406 1.890625 -15.265625 L 1.890625 -15.8125 C 1.890625 -20.570312 3.148438 -24.367188 5.671875 -27.203125 C 8.203125 -30.035156 11.675781 -31.453125 16.09375 -31.453125 C 19.957031 -31.453125 23.054688 -30.351562 25.390625 -28.15625 C 27.722656 -25.957031 28.90625 -23.03125 28.9375 -19.375 L 21.203125 -19.375 C 21.171875 -20.976562 20.675781 -22.28125 19.71875 -23.28125 C 18.769531 -24.28125 17.515625 -24.78125 15.953125 -24.78125 C 14.035156 -24.78125 12.582031 -24.078125 11.59375 -22.671875 C 10.613281 -21.273438 10.125 -19.007812 10.125 -15.875 L 10.125 -15.015625 C 10.125 -11.835938 10.609375 -9.550781 11.578125 -8.15625 C 12.554688 -6.769531 14.035156 -6.078125 16.015625 -6.078125 Z M 16.015625 -6.078125 "/></g></g></g><g fill="#778a3e" fill-opacity="1"><g transform="translate(204.46979, 102.271761)"><g><path d="M 21.0625 0 C 20.6875 -0.738281 20.410156 -1.660156 20.234375 -2.765625 C 18.234375 -0.535156 15.632812 0.578125 12.4375 0.578125 C 9.414062 0.578125 6.910156 -0.296875 4.921875 -2.046875 C 2.929688 -3.804688 1.9375 -6.015625 1.9375 -8.671875 C 1.9375 -11.941406 3.148438 -14.453125 5.578125 -16.203125 C 8.003906 -17.960938 11.507812 -18.847656 16.09375 -18.859375 L 19.890625 -18.859375 L 19.890625 -20.640625 C 19.890625 -22.066406 19.523438 -23.207031 18.796875 -24.0625 C 18.066406 -24.914062 16.910156 -25.34375 15.328125 -25.34375 C 13.941406 -25.34375 12.851562 -25.007812 12.0625 -24.34375 C 11.269531 -23.675781 10.875 -22.765625 10.875 -21.609375 L 2.625 -21.609375 C 2.625 -23.390625 3.175781 -25.039062 4.28125 -26.5625 C 5.382812 -28.09375 6.941406 -29.289062 8.953125 -30.15625 C 10.972656 -31.019531 13.238281 -31.453125 15.75 -31.453125 C 19.5625 -31.453125 22.582031 -30.492188 24.8125 -28.578125 C 27.050781 -26.671875 28.171875 -23.984375 28.171875 -20.515625 L 28.171875 -7.140625 C 28.191406 -4.203125 28.597656 -1.984375 29.390625 -0.484375 L 29.390625 0 Z M 14.25 -5.734375 C 15.457031 -5.734375 16.578125 -6.003906 17.609375 -6.546875 C 18.640625 -7.085938 19.398438 -7.816406 19.890625 -8.734375 L 19.890625 -14.046875 L 16.8125 -14.046875 C 12.6875 -14.046875 10.488281 -12.617188 10.21875 -9.765625 L 10.1875 -9.28125 C 10.1875 -8.25 10.546875 -7.398438 11.265625 -6.734375 C 11.992188 -6.066406 12.988281 -5.734375 14.25 -5.734375 Z M 14.25 -5.734375 "/></g></g></g><g fill="#778a3e" fill-opacity="1"><g transform="translate(235.80737, 102.271761)"><g><path d="M 20.515625 -23.140625 C 19.398438 -23.296875 18.410156 -23.375 17.546875 -23.375 C 14.429688 -23.375 12.390625 -22.316406 11.421875 -20.203125 L 11.421875 0 L 3.171875 0 L 3.171875 -30.875 L 10.953125 -30.875 L 11.1875 -27.203125 C 12.84375 -30.035156 15.132812 -31.453125 18.0625 -31.453125 C 18.976562 -31.453125 19.835938 -31.328125 20.640625 -31.078125 Z M 20.515625 -23.140625 "/></g></g></g><g fill="#778a3e" fill-opacity="1"><g transform="translate(257.127198, 102.271761)"><g><path d="M 19.890625 -8.53125 C 19.890625 -9.539062 19.390625 -10.332031 18.390625 -10.90625 C 17.390625 -11.488281 15.785156 -12.007812 13.578125 -12.46875 C 6.234375 -14.007812 2.5625 -17.128906 2.5625 -21.828125 C 2.5625 -24.566406 3.695312 -26.851562 5.96875 -28.6875 C 8.25 -30.53125 11.226562 -31.453125 14.90625 -31.453125 C 18.820312 -31.453125 21.953125 -30.53125 24.296875 -28.6875 C 26.648438 -26.84375 27.828125 -24.441406 27.828125 -21.484375 L 19.578125 -21.484375 C 19.578125 -22.671875 19.195312 -23.648438 18.4375 -24.421875 C 17.675781 -25.191406 16.488281 -25.578125 14.875 -25.578125 C 13.476562 -25.578125 12.398438 -25.257812 11.640625 -24.625 C 10.878906 -24 10.5 -23.203125 10.5 -22.234375 C 10.5 -21.316406 10.929688 -20.578125 11.796875 -20.015625 C 12.660156 -19.460938 14.117188 -18.976562 16.171875 -18.5625 C 18.234375 -18.15625 19.96875 -17.695312 21.375 -17.1875 C 25.726562 -15.582031 27.90625 -12.8125 27.90625 -8.875 C 27.90625 -6.0625 26.695312 -3.78125 24.28125 -2.03125 C 21.875 -0.289062 18.753906 0.578125 14.921875 0.578125 C 12.335938 0.578125 10.039062 0.113281 8.03125 -0.8125 C 6.019531 -1.738281 4.441406 -3.003906 3.296875 -4.609375 C 2.160156 -6.210938 1.59375 -7.945312 1.59375 -9.8125 L 9.421875 -9.8125 C 9.492188 -8.351562 10.035156 -7.234375 11.046875 -6.453125 C 12.054688 -5.671875 13.40625 -5.28125 15.09375 -5.28125 C 16.675781 -5.28125 17.867188 -5.578125 18.671875 -6.171875 C 19.484375 -6.773438 19.890625 -7.5625 19.890625 -8.53125 Z M 19.890625 -8.53125 "/></g></g></g><g fill="#fdcf46" fill-opacity="1"><g transform="translate(287.170291, 102.271761)"><g><path d="M 3.59375 -4.046875 C 3.59375 -5.359375 4.035156 -6.425781 4.921875 -7.25 C 5.804688 -8.070312 6.914062 -8.484375 8.25 -8.484375 C 9.601562 -8.484375 10.71875 -8.070312 11.59375 -7.25 C 12.476562 -6.425781 12.921875 -5.359375 12.921875 -4.046875 C 12.921875 -2.753906 12.484375 -1.703125 11.609375 -0.890625 C 10.734375 -0.0859375 9.613281 0.3125 8.25 0.3125 C 6.894531 0.3125 5.78125 -0.0859375 4.90625 -0.890625 C 4.03125 -1.703125 3.59375 -2.753906 3.59375 -4.046875 Z M 3.59375 -4.046875 "/></g></g></g></svg>