<svg xmlns="http://www.w3.org/2000/svg" xmlns:xlink="http://www.w3.org/1999/xlink" width="500" zoomAndPan="magnify" viewBox="0 0 375 374.999991" height="500" preserveAspectRatio="xMidYMid meet" version="1.0"><defs><g/></defs><g fill="#778a3e" fill-opacity="1"><g transform="translate(-4.807474, 307.132289)"><g><path d="M 136.59375 -51.859375 C 149.582031 -51.859375 160.132812 -55.425781 168.25 -62.5625 C 176.363281 -69.707031 180.582031 -79.207031 180.90625 -91.0625 L 246.890625 -91.0625 C 246.734375 -73.207031 241.863281 -56.851562 232.28125 -42 C 222.707031 -27.144531 209.597656 -15.617188 192.953125 -7.421875 C 176.316406 0.773438 157.9375 4.875 137.8125 4.875 C 100.15625 4.875 70.445312 -7.09375 48.6875 -31.03125 C 26.9375 -54.976562 16.0625 -88.054688 16.0625 -130.265625 L 16.0625 -134.890625 C 16.0625 -175.472656 26.859375 -207.851562 48.453125 -232.03125 C 70.046875 -256.21875 99.671875 -268.3125 137.328125 -268.3125 C 170.273438 -268.3125 196.691406 -258.9375 216.578125 -240.1875 C 236.460938 -221.445312 246.566406 -196.492188 246.890625 -165.328125 L 180.90625 -165.328125 C 180.582031 -178.960938 176.363281 -190.039062 168.25 -198.5625 C 160.132812 -207.082031 149.421875 -211.34375 136.109375 -211.34375 C 119.710938 -211.34375 107.332031 -205.375 98.96875 -193.4375 C 90.613281 -181.507812 86.4375 -162.15625 86.4375 -135.375 L 86.4375 -128.078125 C 86.4375 -100.960938 90.570312 -81.476562 98.84375 -69.625 C 107.125 -57.78125 119.707031 -51.859375 136.59375 -51.859375 Z M 136.59375 -51.859375 "/></g></g></g><g fill="#fdcf46" fill-opacity="1"><g transform="translate(255.22992, 307.132289)"><g><path d="M 30.671875 -34.578125 C 30.671875 -45.773438 34.445312 -54.863281 42 -61.84375 C 49.550781 -68.820312 59.003906 -72.3125 70.359375 -72.3125 C 81.890625 -72.3125 91.425781 -68.820312 98.96875 -61.84375 C 106.519531 -54.863281 110.296875 -45.773438 110.296875 -34.578125 C 110.296875 -23.535156 106.5625 -14.566406 99.09375 -7.671875 C 91.625 -0.773438 82.046875 2.671875 70.359375 2.671875 C 58.835938 2.671875 49.34375 -0.773438 41.875 -7.671875 C 34.40625 -14.566406 30.671875 -23.535156 30.671875 -34.578125 Z M 30.671875 -34.578125 "/></g></g></g></svg>